<svg width="800" height="600" viewBox="0 0 800 600" fill="none" xmlns="http://www.w3.org/2000/svg">
<path d="M800 0H0V600H800V0Z" fill="white"/>
<path d="M564 264C619.228 264 664 219.228 664 164C664 108.772 619.228 64 564 64C508.772 64 464 108.772 464 164C464 219.228 508.772 264 564 264Z" fill="url(#paint0_radial)"/>
<path d="M564 193C580.016 193 593 180.016 593 164C593 147.984 580.016 135 564 135C547.984 135 535 147.984 535 164C535 180.016 547.984 193 564 193Z" fill="#FEFEFE"/>
<path d="M361 304.5L334.287 304.104L310.743 293.291L301.646 269.023L304.672 253.822L291.311 225L320.13 252.591L328.989 255.883L349.155 288.117L361 304.5Z" fill="url(#paint1_linear)"/>
<path d="M337.167 302.5L291.033 345.443L271.579 328.879L238.247 286.452L261.937 255.883L271.702 245.615L291.311 225L304.699 253.812L301.683 269.023L310.78 293.291L337.167 302.5Z" fill="url(#paint2_linear)"/>
<path d="M291.033 345.443L241.208 392.037L232.291 387.063L228.458 364.701L208.467 341.716L203.622 326.21L212.813 318.601L202.842 256L202.933 256.05L224.252 268.647L238.247 286.452L271.579 328.879L291.033 345.443Z" fill="url(#paint3_linear)"/>
<path d="M175.169 454H26C26 454 26 454 26.121 453.859C26.161 453.819 26.202 453.698 26.272 453.508C27.298 450.246 32.57 425.645 59.443 391.74L69.081 377.036L84.736 372.82L134.105 321.431L162.226 304.037L202.842 256L212.812 318.601L203.621 326.21L208.465 341.716L228.456 364.701L232.209 387.013L241.207 392.037L175.169 454Z" fill="url(#paint4_linear)"/>
<path d="M548.25 326.599L546.833 321.348L531.089 311.293L529.214 288.337L531.849 276.646L520.42 259.589L524.23 246.061L511.023 224.004C511.023 224.004 542.389 250.701 543.405 257.972L556.168 268.695L561.206 280.362L579.306 295.385L571.872 310.315L548.25 326.599Z" fill="url(#paint5_linear)"/>
<path d="M548.25 326.599L505.588 356.009L497.451 360.373L472.02 329.458L445.688 312.894L434.121 310.931L434 310.911L461.368 273.39L475.593 270.744L480.678 262.44L511.018 224L524.181 246.229L520.471 259.655L531.855 276.644L529.216 288.332L531.086 311.29L546.828 321.352L548.25 326.599Z" fill="url(#paint6_linear)"/>
<path d="M661.17 460.999L649.251 383.939L611.923 340.777L613.519 313.937L590.775 272.027L648.523 317.036L654.218 333.845L742 460.999H661.17Z" fill="url(#paint7_linear)"/>
<path d="M663.833 469.857H604L530.09 388.19H520.333L497.451 360.373L505.588 356.009L571.872 310.314L590.773 272.03L590.783 272.04L613.506 313.915V313.925L613.516 313.935L611.941 340.642L611.931 340.771L637.473 370.325L649.251 383.946L661.139 460.851L663.833 469.857Z" fill="url(#paint8_linear)"/>
<path d="M604 469.857H289.138L281.318 414.815L265.409 388.19L305.708 409.604L317.452 395.371L331.499 352.432L349.912 347.441L392.964 306.003L445.688 312.894L472.02 329.458L520.333 388.19H530.09L604 469.857Z" fill="#FAFAFA"/>
<path d="M392.967 306L349.921 347.439L331.496 352.429L317.449 395.373L305.708 409.604L265.418 388.189L158 469.85L331.806 307.314L392.967 306Z" fill="url(#paint9_linear)"/>
<path d="M289.147 470H158L265.418 388.339L281.316 414.963L289.147 470Z" fill="url(#paint10_linear)"/>
<path opacity="0.25" d="M355.128 342.476L392.964 306.003L444.94 312.41L471.24 328.97L474.861 333.509C478.397 337.942 474.871 344.447 469.227 343.904L392.283 336.5L356.75 345.427C355.02 345.848 353.846 343.711 355.128 342.476Z" fill="url(#paint11_linear)"/>
<path d="M407 188.891C407 194.302 404.032 209.238 395.5 209.238C386.968 209.238 384 194.301 384 188.891C384 183.48 389.149 179.094 395.5 179.094C401.851 179.094 407 183.48 407 188.891Z" fill="#F2D5D3"/>
<path d="M407.54 215.396C407.54 215.948 402.167 219.5 395.54 219.5C388.913 219.5 383.54 215.948 383.54 215.396C383.54 214.844 388.913 213 395.54 213C402.167 213 407.54 214.844 407.54 215.396Z" fill="#C5D5E1"/>
<path d="M405.941 221.857C398.23 216.95 401.401 206.012 401.401 206.012H389.451C389.451 206.012 392.622 216.95 384.911 221.857C381.204 224.215 409.647 224.215 405.941 221.857Z" fill="#F2D5D3"/>
<path d="M414 295C411.785 295 379.215 295 377 295C371.392 295 341 295 341 295L395.425 313.16L450 295C450 295 419.608 295 414 295Z" fill="#01579B"/>
<path d="M370.889 323.949C370.889 323.949 352.996 323.509 350.237 329.454C347.477 335.399 360.585 334.078 364.035 333.417C367.484 332.756 373.693 330.495 373.693 330.495L370.889 323.949Z" fill="#424242"/>
<path d="M419.962 323.949C419.962 323.949 437.855 323.509 440.614 329.454C443.374 335.399 430.266 334.078 426.816 333.417C423.367 332.756 417.158 330.495 417.158 330.495L419.962 323.949Z" fill="#424242"/>
<path d="M384.541 179C384.541 179 388.516 181.068 386.359 185.838C384.921 189.018 385.13 194.582 385.13 196C385.13 196 382.044 192.025 382.044 185.665C382.044 182.209 381.463 179 384.541 179Z" fill="#424242"/>
<path d="M405.732 178C405.732 178 402.709 180.081 404.65 185.048C405.944 188.36 405.933 194.523 405.933 196C405.933 196 409 191.86 409 185.237C409 180.269 407.673 178 405.732 178Z" fill="#424242"/>
<path d="M410 191.465V184.98C410 176.588 403.508 172.588 395.5 172.588C387.492 172.588 381 176.587 381 184.98V191.465" stroke="#BDBDBD" stroke-width="3" stroke-miterlimit="10"/>
<path d="M386 187.905C386 186.853 385.105 186 384 186C382.895 186 382 186.853 382 187.905V200.095C382 201.147 382.895 202 384 202C385.105 202 386 201.147 386 200.095V187.905Z" fill="#5AA7E3"/>
<path d="M409 187.905C409 186.853 408.105 186 407 186C405.895 186 405 186.853 405 187.905V200.095C405 201.147 405.895 202 407 202C408.105 202 409 201.147 409 200.095V187.905Z" fill="#5AA7E3"/>
<path d="M412 198.4L409 200V188L412 189.6V198.4Z" fill="#2482CC"/>
<path d="M379 198.4L382 200V188L379 189.6V198.4Z" fill="#2482CC"/>
<path d="M386.385 186.104C386.385 186.104 384.805 183.427 383.596 181.197C382.387 178.967 382.553 173.054 388.601 173.5C394.649 173.946 397.352 174.279 399.443 173.578C402.403 172.586 402 170 402 170C402 170 408 171.308 408 177C408 181 403.336 183.988 393.59 185.417C388.9 186.104 386.385 186.104 386.385 186.104Z" fill="#424242"/>
<path d="M331 305C331 299.742 335.773 295 341 295C351.165 295 358.49 297.685 368.788 301.401C401.034 313.039 419.962 323.949 419.962 323.949L417.158 330.495C417.158 330.495 370.891 324.676 350.562 318.857C344.624 317.158 331 313.111 331 305Z" fill="#1A68A5"/>
<path d="M460 305C460 299.742 455.227 295 450 295C439.835 295 432.361 297.685 422.063 301.401C389.817 313.039 370.889 323.949 370.889 323.949L373.693 330.495C373.693 330.495 419.96 324.676 440.289 318.857C446.226 317.158 460 313.111 460 305Z" fill="#2770AA"/>
<path d="M444.707 293.021C445.611 293.513 446.627 293.996 447.644 294.504C450.173 295.763 454.506 297 459.126 297C462.59 297 465.162 297.052 469.781 291.278C470.266 290.666 469.781 288.968 468.626 288.968C467.875 288.968 463.985 290.092 462.657 291.039C462.195 290.485 460.324 290.031 459.157 290.031C454.538 290.031 455.22 291.039 452.263 291.039C451.423 291.039 450.213 290.141 448.802 288.685C448.802 288.686 446.713 290.345 444.707 293.021Z" fill="#F2D5D3"/>
<path d="M346.344 293.021C345.44 293.513 344.424 293.996 343.407 294.504C340.878 295.763 336.432 296.969 331.813 296.969C328.349 296.969 325.807 297.033 321.188 291.259C320.703 290.647 321.188 288.949 322.343 288.949C323.094 288.949 327.067 290.092 328.395 291.039C328.857 290.485 330.615 290.031 331.782 290.031C336.401 290.031 335.832 291.039 338.788 291.039C339.628 291.039 340.838 290.141 342.249 288.685C342.249 288.686 344.338 290.345 346.344 293.021Z" fill="#F2D5D3"/>
<path d="M448.8 288.69C447.37 290.02 446 291.48 444.71 293.02C439.76 290.34 433.07 290.38 424.49 281.9C423.22 280.65 422.22 279.16 421.5 277.52C418.68 271.06 416 256 416 256C416 256 416 270 416 278C416 286.402 419.61 295 414 295H377C371.39 295 375 286.402 375 278C375 270 375 256 375 256C375 256 372.37 271.06 369.55 277.52C368.83 279.16 367.83 280.65 366.56 281.9C357.98 290.38 351.29 290.34 346.34 293.02C345.05 291.48 343.68 290.02 342.25 288.69C346.2 284.65 351.71 276.13 355.06 270.76C355.8 269.57 356.35 268.29 356.71 266.94C357.67 263.29 359.6 254 359.6 254C361 243.48 363.63 232.88 369.72 230.19C373.525 228.493 377.036 226.652 380.016 224.908L411.03 224.979C414.013 226.693 417.527 228.494 421.33 230.19C427.42 232.88 430.05 243.48 431.45 254C431.45 254 433.38 263.29 434.34 266.94C434.7 268.29 435.25 269.57 435.99 270.76C439.34 276.13 444.85 284.65 448.8 288.69Z" fill="#C5D5E1"/>
<path d="M411.002 290H379.998C379.311 290 378.828 289.319 379.058 288.669C380.075 285.794 382.329 278.719 382.535 271.978C382.552 271.434 382.983 271 383.525 271H407.475C408.017 271 408.449 271.434 408.465 271.978C408.671 278.719 410.925 285.795 411.942 288.669C412.172 289.319 411.689 290 411.002 290Z" fill="#EAF1F7"/>
<path d="M383.041 215.85L379.54 225.184C379.54 225.184 385.078 231 395.54 231C406.002 231 411.54 225.269 411.54 225.269L408.039 215.85C407.82 215.265 407.095 215.004 406.554 215.34C405.172 216.2 402.057 217.429 395.54 217.429C389.023 217.429 385.908 216.2 384.526 215.34C383.986 215.004 383.261 215.265 383.041 215.85Z" fill="#EAF1F6"/>
<path d="M391 229C392.657 229 394 227.657 394 226C394 224.343 392.657 223 391 223C389.343 223 388 224.343 388 226C388 227.657 389.343 229 391 229Z" fill="#C5D5E1"/>
<path d="M400 229C401.657 229 403 227.657 403 226C403 224.343 401.657 223 400 223C398.343 223 397 224.343 397 226C397 227.657 398.343 229 400 229Z" fill="#C5D5E1"/>
<path d="M400 226V252" stroke="#F7FAFE" stroke-width="2" stroke-miterlimit="10" stroke-linecap="round"/>
<path d="M391 226V252" stroke="#F7FAFE" stroke-width="2" stroke-miterlimit="10" stroke-linecap="round"/>
<path d="M385.917 506.661C400.479 506.661 412.283 494.857 412.283 480.295C412.283 465.733 400.479 453.929 385.917 453.929C371.355 453.929 359.551 465.733 359.551 480.295C359.551 494.857 371.355 506.661 385.917 506.661Z" fill="white"/>
<path d="M345.89 494.007C361.554 494.007 374.252 481.309 374.252 465.645C374.252 449.981 361.554 437.283 345.89 437.283C330.226 437.283 317.528 449.981 317.528 465.645C317.528 481.309 330.226 494.007 345.89 494.007Z" fill="white"/>
<path d="M303.106 503.334C316.922 503.334 328.122 492.134 328.122 478.318C328.122 464.502 316.922 453.302 303.106 453.302C289.29 453.302 278.09 464.502 278.09 478.318C278.09 492.134 289.29 503.334 303.106 503.334Z" fill="white"/>
<path d="M242.924 532.117C267.766 532.117 287.905 511.978 287.905 487.136C287.905 462.294 267.766 442.155 242.924 442.155C218.082 442.155 197.943 462.294 197.943 487.136C197.943 511.978 218.082 532.117 242.924 532.117Z" fill="white"/>
<path d="M183.612 494.008C206.093 494.008 224.318 475.783 224.318 453.302C224.318 430.821 206.093 412.596 183.612 412.596C161.131 412.596 142.906 430.821 142.906 453.302C142.906 475.783 161.131 494.008 183.612 494.008Z" fill="white"/>
<path d="M124.11 487.136C142.367 487.136 157.168 472.335 157.168 454.078C157.168 435.821 142.367 421.02 124.11 421.02C105.853 421.02 91.052 435.821 91.052 454.078C91.052 472.335 105.853 487.136 124.11 487.136Z" fill="white"/>
<path d="M74.8422 506.057C93.4814 505.024 107.755 489.077 106.722 470.438C105.69 451.799 89.7431 437.526 71.1039 438.558C52.4647 439.59 38.1915 455.537 39.2238 474.176C40.2561 492.816 56.203 507.089 74.8422 506.057Z" fill="white"/>
<path d="M451.476 528.927C478.335 528.927 500.108 507.154 500.108 480.295C500.108 453.436 478.335 431.663 451.476 431.663C424.617 431.663 402.844 453.436 402.844 480.295C402.844 507.154 424.617 528.927 451.476 528.927Z" fill="white"/>
<path d="M526.931 553.103C552.894 553.103 573.941 532.056 573.941 506.093C573.941 480.13 552.894 459.083 526.931 459.083C500.968 459.083 479.921 480.13 479.921 506.093C479.921 532.056 500.968 553.103 526.931 553.103Z" fill="white"/>
<path d="M590.775 511.015C610.405 511.015 626.319 495.101 626.319 475.471C626.319 455.841 610.405 439.927 590.775 439.927C571.145 439.927 555.231 455.841 555.231 475.471C555.231 495.101 571.145 511.015 590.775 511.015Z" fill="white"/>
<path d="M648.662 505.94C669.251 505.94 685.941 489.25 685.941 468.661C685.941 448.072 669.251 431.382 648.662 431.382C628.073 431.382 611.383 448.072 611.383 468.661C611.383 489.25 628.073 505.94 648.662 505.94Z" fill="white"/>
<path d="M693.609 464.661C706.814 464.661 717.518 453.957 717.518 440.752C717.518 427.547 706.814 416.843 693.609 416.843C680.404 416.843 669.7 427.547 669.7 440.752C669.7 453.957 680.404 464.661 693.609 464.661Z" fill="white"/>
<path d="M733.15 516.708C754.352 516.708 771.54 499.52 771.54 478.318C771.54 457.116 754.352 439.928 733.15 439.928C711.948 439.928 694.76 457.116 694.76 478.318C694.76 499.52 711.948 516.708 733.15 516.708Z" fill="white"/>
<defs>
<radialGradient id="paint0_radial" cx="0" cy="0" r="1" gradientUnits="userSpaceOnUse" gradientTransform="translate(564 164) scale(77.3898 81.9351)">
<stop stop-color="#E0E0E0"/>
<stop offset="0.5864" stop-color="#F5F5F5" stop-opacity="0.4136"/>
<stop offset="1" stop-color="white" stop-opacity="0"/>
</radialGradient>
<linearGradient id="paint1_linear" x1="355.39" y1="310.111" x2="280.795" y2="235.516" gradientUnits="userSpaceOnUse">
<stop stop-color="white" stop-opacity="0"/>
<stop offset="1" stop-color="#FAFAFA"/>
</linearGradient>
<linearGradient id="paint2_linear" x1="260.345" y1="317.645" x2="322.15" y2="255.839" gradientUnits="userSpaceOnUse">
<stop stop-color="white" stop-opacity="0"/>
<stop offset="1" stop-color="#F5F5F5"/>
</linearGradient>
<linearGradient id="paint3_linear" x1="268.446" y1="368.03" x2="179.629" y2="279.213" gradientUnits="userSpaceOnUse">
<stop stop-color="white"/>
<stop offset="1" stop-color="#F5F5F5"/>
</linearGradient>
<linearGradient id="paint4_linear" x1="55.8403" y1="483.84" x2="243.261" y2="296.419" gradientUnits="userSpaceOnUse">
<stop stop-color="white" stop-opacity="0"/>
<stop offset="0.3493" stop-color="#FAFAFA" stop-opacity="0.3493"/>
<stop offset="0.7742" stop-color="#EBEBEB" stop-opacity="0.7742"/>
<stop offset="1" stop-color="#E0E0E0"/>
</linearGradient>
<linearGradient id="paint5_linear" x1="568.216" y1="313.971" x2="494.636" y2="240.391" gradientUnits="userSpaceOnUse">
<stop stop-color="white" stop-opacity="0"/>
<stop offset="1" stop-color="#FAFAFA"/>
</linearGradient>
<linearGradient id="paint6_linear" x1="463.946" y1="340.857" x2="545.911" y2="258.893" gradientUnits="userSpaceOnUse">
<stop stop-color="white" stop-opacity="0"/>
<stop offset="0.3511" stop-color="#F9F9F9" stop-opacity="0.3511"/>
<stop offset="1" stop-color="#F5F5F5"/>
</linearGradient>
<linearGradient id="paint7_linear" x1="734.414" y1="468.585" x2="564.316" y2="298.487" gradientUnits="userSpaceOnUse">
<stop stop-color="white" stop-opacity="0"/>
<stop offset="0.8429" stop-color="#F7F7F7" stop-opacity="0.8429"/>
<stop offset="1" stop-color="#F5F5F5"/>
</linearGradient>
<linearGradient id="paint8_linear" x1="563.95" y1="431.807" x2="657.25" y2="338.507" gradientUnits="userSpaceOnUse">
<stop stop-color="white" stop-opacity="0"/>
<stop offset="0.0019" stop-color="white" stop-opacity="0.01"/>
<stop offset="0.6125" stop-color="#E8E8E8" stop-opacity="0.6125"/>
<stop offset="1" stop-color="#E0E0E0"/>
</linearGradient>
<linearGradient id="paint9_linear" x1="158" y1="387.925" x2="392.967" y2="387.925" gradientUnits="userSpaceOnUse">
<stop stop-color="white" stop-opacity="0"/>
<stop offset="1" stop-color="#BDBDBD"/>
</linearGradient>
<linearGradient id="paint10_linear" x1="223.574" y1="470" x2="223.574" y2="388.339" gradientUnits="userSpaceOnUse">
<stop stop-color="white" stop-opacity="0"/>
<stop offset="0.0717" stop-color="#F8F8F8" stop-opacity="0.0717"/>
<stop offset="0.2785" stop-color="#EAEAEA" stop-opacity="0.2785"/>
<stop offset="0.5363" stop-color="#E2E2E2" stop-opacity="0.5363"/>
<stop offset="1" stop-color="#E0E0E0"/>
</linearGradient>
<linearGradient id="paint11_linear" x1="416.105" y1="345.076" x2="410.655" y2="307.445" gradientUnits="userSpaceOnUse">
<stop stop-color="white" stop-opacity="0"/>
<stop offset="0.1469" stop-color="#DADADA" stop-opacity="0.1469"/>
<stop offset="0.3171" stop-color="#B6B6B6" stop-opacity="0.3171"/>
<stop offset="0.4886" stop-color="#999999" stop-opacity="0.4886"/>
<stop offset="0.6598" stop-color="#858585" stop-opacity="0.6598"/>
<stop offset="0.8304" stop-color="#797979" stop-opacity="0.8304"/>
<stop offset="1" stop-color="#757575"/>
</linearGradient>
</defs>
</svg>
